<?xml version="1.0" encoding="iso-8859-1"?>
<!-- Generator: Adobe Illustrator 19.0.0, SVG Export Plug-In . SVG Version: 6.00 Build 0)  -->
<svg version="1.1" id="Layer_1" xmlns="http://www.w3.org/2000/svg" xmlns:xlink="http://www.w3.org/1999/xlink" width="50px" height="50px"
	 viewBox="0 0 511.999 511.999" style="enable-background:new 0 0 511.999 511.999;" xml:space="preserve">
<g>
	<g>
		<path d="M442.747,391.465c-34.764-10.565-77.674-17.804-124.537-21.203c-6.934,10.297-13.651,20.026-19.942,28.984
			c18.92,1.237,36.314,3.302,50.941,6.111c22.672,4.356,48.698,11.804,48.698,30.916c0,19.111-26.025,26.56-48.698,30.914
			c-25.033,4.808-58.136,7.456-93.21,7.456c-35.073,0-68.177-2.647-93.21-7.456c-22.672-4.354-48.698-11.804-48.698-30.914
			c0-19.111,26.025-26.56,48.698-30.916c14.753-2.834,32.32-4.91,51.43-6.143c-6.388-8.952-13.204-18.677-20.238-28.966
			c-46.938,3.393-89.919,10.636-124.731,21.218C18.137,407.001,0,425.313,0,436.274c0,10.961,18.137,29.273,69.253,44.807
			c49.689,15.102,116.009,23.418,186.747,23.418s137.058-8.317,186.747-23.418c51.115-15.534,69.253-33.846,69.253-44.807
			C511.999,425.313,493.863,407.001,442.747,391.465z"/>
	</g>
</g>
<g>
	<g>
		<path d="M279.255,425.818c-0.982,1.348-1.95,2.672-2.882,3.944c-4.686,6.392-11.917,10.078-19.841,10.109
			c-0.033,0-0.069,0-0.103,0c-7.882,0-15.098-3.621-19.814-9.948c-0.991-1.329-2.021-2.717-3.069-4.132
			c-39.659,1.339-67.38,6.076-82.104,10.482c17.361,5.195,52.787,10.854,104.559,10.854s87.197-5.659,104.559-10.854
			C345.933,431.898,318.489,427.192,279.255,425.818z"/>
	</g>
</g>
<g>
	<g>
		<path d="M256.024,7.499c-0.091,0-0.182,0-0.272,0c-77.436,0.138-140.324,63.25-140.188,140.687
			c0.095,53.612,72.388,170.009,140.852,262.252c68.181-93.417,140.115-211.082,140.019-264.745
			C396.297,68.152,334.643,7.499,256.024,7.499z M256.096,206.362c-0.03,0-0.066,0-0.096,0c-29.455,0-53.442-23.934-53.494-53.401
			c-0.054-29.497,23.902-53.538,53.399-53.59c0.032,0,0.066,0,0.099,0c14.252,0,27.658,5.538,37.755,15.6
			c10.122,10.086,15.71,23.51,15.737,37.8C309.547,182.268,285.593,206.309,256.096,206.362z"/>
	</g>
</g>
<g>
</g>
<g>
</g>
<g>
</g>
<g>
</g>
<g>
</g>
<g>
</g>
<g>
</g>
<g>
</g>
<g>
</g>
<g>
</g>
<g>
</g>
<g>
</g>
<g>
</g>
<g>
</g>
<g>
</g>
</svg>
