<svg width="139" height="18" viewBox="0 0 139 18" fill="none" xmlns="http://www.w3.org/2000/svg">
<path d="M18.5865 17.168L11.3385 0.151999H7.61853L0.394531 17.168H9.63453V13.784H5.91453L9.44253 5.12L14.3385 17.168H18.5865ZM28.662 17.096V3.608H31.326C33.198 3.656 34.158 4.496 34.158 6.128C34.038 7.784 33.126 8.624 31.398 8.624H28.878L31.158 12.056C33.198 12.056 34.902 11.528 36.246 10.52C37.614 9.488 38.286 8 38.286 6.008C37.998 2.096 35.79 0.128 31.638 0.128H24.582V17.096H28.662ZM44.293 0.151999V3.584H57.349V0.151999H44.293ZM47.965 13.64V10.328H52.453V6.896H44.293V17.072H57.349V13.64H47.965ZM68.4597 3.68V17.072H72.5397V3.68H77.6517V0.128H63.3477V3.68H68.4597ZM83.6445 0.151999V3.584H96.7005V0.151999H83.6445ZM87.3165 13.64V10.328H91.8045V6.896H83.6445V17.072H96.7005V13.64H87.3165ZM111.219 17.072C112.827 17.072 114.171 16.808 115.227 16.28C116.283 15.752 117.243 15.032 118.059 14.096L115.587 11.6C114.507 12.944 113.091 13.64 111.339 13.64C110.019 13.64 108.939 13.136 108.099 12.176C107.235 11.192 106.803 9.992 106.803 8.576C106.803 7.16 107.235 5.984 108.099 5.024C108.963 4.04 110.043 3.56 111.339 3.56C112.875 3.56 114.267 4.232 115.491 5.528L117.939 2.696C117.195 1.928 116.307 1.304 115.275 0.847999C114.243 0.368 112.923 0.128 111.363 0.128C108.771 0.128 106.683 0.967999 105.099 2.648C103.491 4.304 102.699 6.296 102.699 8.624C102.699 10.976 103.491 12.968 105.099 14.6C106.707 16.256 108.747 17.072 111.219 17.072ZM138.595 17.048V0.151999H134.515V5.552L128.107 7.592V0.151999H124.051V17.048H128.107V11.768L134.515 9.752V17.048H138.595Z" fill="white"/>
</svg>
