<svg width="54" height="60" viewBox="0 0 54 60" fill="none" xmlns="http://www.w3.org/2000/svg">
<path d="M48.3465 44.5788C43.8255 47.1885 39.3069 49.7982 34.7859 52.4079C32.9726 53.4542 31.1715 54.5324 29.341 55.5518C26.9568 56.8799 25.0504 55.6155 23.0337 54.4491C17.7873 51.4204 12.5385 48.3892 7.29212 45.3605C5.39794 44.2676 3.82231 43.1453 3.80026 40.663C3.78066 38.3841 3.80026 36.1052 3.80026 33.8288C3.80026 30.4227 3.80026 27.019 3.80026 23.613C3.80026 21.7923 3.48905 19.6286 3.92278 17.8348C4.47903 15.5363 6.9417 14.5807 8.79913 13.5074C11.622 11.8779 14.4449 10.2483 17.2703 8.61635C19.6055 7.26861 21.9408 5.91843 24.2785 4.57069C25.1827 4.04875 26.0403 3.58072 27.1406 3.58072C28.2408 3.58072 29.0985 4.04875 30.0027 4.57069C35.1608 7.55041 40.3214 10.5277 45.4795 13.5074C47.4031 14.6174 49.8952 15.5829 50.3927 18.0064C50.7553 19.7731 50.4784 21.8266 50.4784 23.613C50.4784 29.2955 50.5299 34.9805 50.4784 40.663C50.4662 42.3195 49.7727 43.6942 48.3465 44.5788C46.7415 45.5737 48.2167 48.1197 49.8315 47.1174C52.0565 45.7378 53.3577 43.4933 53.4238 40.8713C53.441 40.2146 53.4238 39.5554 53.4238 38.8987C53.4238 35.6837 53.4238 32.4712 53.4238 29.2563C53.4238 26.1834 53.4238 23.1106 53.4238 20.0378C53.4238 19.2071 53.441 18.396 53.2989 17.5702C52.9313 15.4285 51.5836 13.6887 49.7531 12.5762C44.7763 9.54751 39.65 6.74422 34.6046 3.83066C32.6271 2.68877 30.4315 1.03473 28.1232 0.718624C25.2415 0.324105 23.0189 1.90218 20.6714 3.25726C15.3859 6.30804 10.0831 9.33432 4.81228 12.4145C2.15357 13.9656 0.859748 16.4259 0.859748 19.4693C0.859748 22.2456 0.859748 25.0219 0.859748 27.7983C0.859748 31.1774 0.859748 34.5541 0.859748 37.9332C0.859748 40.7537 0.70047 43.5055 2.77843 45.7771C4.20213 47.3331 6.51533 48.3083 8.31149 49.3449C11.4162 51.1361 14.5184 52.9274 17.6231 54.7211C19.5687 55.8434 21.4972 56.9976 23.46 58.0904C25.6164 59.2911 28.1599 59.4284 30.3898 58.3257C30.9779 58.0341 31.5366 57.6788 32.1051 57.3529C37.5622 54.2016 43.0193 51.0504 48.4764 47.9016C48.9273 47.6418 49.3806 47.3796 49.8315 47.1199C51.4684 46.1716 49.9883 43.628 48.3465 44.5788Z" fill="white"/>
</svg>
