<svg width="113" height="7" viewBox="0 0 113 7" fill="none" xmlns="http://www.w3.org/2000/svg">
<path d="M0.429688 1.856V2.96H1.85369V1.632H1.35769C1.31769 1.192 1.58169 0.944 2.14169 0.88L2.02969 0.336C1.49369 0.344 1.09369 0.472 0.829688 0.712C0.565688 0.944 0.429688 1.328 0.429688 1.856ZM10.2046 6.056L7.78863 0.384H6.54863L4.14062 6.056H7.22063V4.928H5.98063L7.15663 2.04L8.78863 6.056H10.2046ZM16.4511 6.024C17.3631 6.024 18.0911 5.752 18.6511 5.208C19.2191 4.656 19.4991 3.984 19.4991 3.192C19.4991 2.4 19.2191 1.736 18.6511 1.192C18.0911 0.648 17.3631 0.376 16.4511 0.376H14.2031V6.024H16.4511ZM16.4511 4.864H15.5631V1.536H16.4511C17.5391 1.664 18.0751 2.224 18.0751 3.216C17.9631 4.32 17.4191 4.864 16.4511 4.864ZM26.484 6.024L25.108 4.008C25.9 3.752 26.3 3.168 26.3 2.248C26.3 1.72 26.14 1.296 25.82 0.968C25.428 0.576 24.86 0.376 24.124 0.376H21.5V6.024H22.86V1.536H24.02C24.628 1.544 24.924 1.808 24.924 2.328C24.9 2.84 24.604 3.096 24.044 3.096H22.932L24.924 6.024H26.484ZM28.4844 0.384V1.528H32.8364V0.384H28.4844ZM29.7084 4.88V3.776H31.2044V2.632H28.4844V6.024H32.8364V4.88H29.7084ZM40.8999 6.056L38.4839 0.384H37.2439L34.8359 6.056H37.9159V4.928H36.6759L37.8519 2.04L39.4839 6.056H40.8999ZM48.6344 6.032V0.376H47.1944L45.7704 2.552L44.3384 0.376H42.8984V6.032H44.2344V2.56L45.1064 3.88V6.032H46.4264V3.832L47.2824 2.536V6.032H48.6344ZM55.4728 6.024C56.0088 6.024 56.4568 5.936 56.8088 5.76C57.1608 5.584 57.4808 5.344 57.7528 5.032L56.9288 4.2C56.5688 4.648 56.0968 4.88 55.5128 4.88C55.0728 4.88 54.7128 4.712 54.4328 4.392C54.1448 4.064 54.0008 3.664 54.0008 3.192C54.0008 2.72 54.1448 2.328 54.4328 2.008C54.7208 1.68 55.0808 1.52 55.5128 1.52C56.0248 1.52 56.4888 1.744 56.8968 2.176L57.7128 1.232C57.4648 0.976 57.1688 0.768 56.8248 0.616C56.4808 0.456 56.0408 0.376 55.5208 0.376C54.6568 0.376 53.9608 0.656 53.4328 1.216C52.8968 1.768 52.6328 2.432 52.6328 3.208C52.6328 3.992 52.8968 4.656 53.4328 5.2C53.9688 5.752 54.6488 6.024 55.4728 6.024ZM62.71 4.88C62.486 4.88 62.278 4.84 62.086 4.752C61.894 4.672 61.726 4.552 61.582 4.4C61.438 4.248 61.326 4.064 61.246 3.864C61.166 3.656 61.126 3.432 61.126 3.2V3.184C61.126 2.944 61.166 2.728 61.246 2.52C61.326 2.32 61.438 2.144 61.582 1.992C61.718 1.84 61.878 1.72 62.07 1.64C62.262 1.552 62.47 1.512 62.694 1.512C62.918 1.512 63.126 1.552 63.318 1.64C63.51 1.728 63.678 1.848 63.822 2C63.966 2.152 64.078 2.328 64.158 2.536C64.238 2.744 64.278 2.96 64.278 3.2V3.216C64.278 3.448 64.238 3.664 64.158 3.872C64.078 4.08 63.974 4.256 63.83 4.408C63.694 4.56 63.526 4.672 63.334 4.76C63.142 4.84 62.934 4.88 62.71 4.88ZM62.694 6.032C63.134 6.032 63.526 5.96 63.894 5.808C64.262 5.656 64.574 5.448 64.83 5.192C65.094 4.928 65.294 4.624 65.446 4.288C65.59 3.944 65.662 3.584 65.662 3.2V3.184C65.662 2.792 65.59 2.432 65.446 2.088C65.302 1.752 65.102 1.456 64.838 1.2C64.582 0.944 64.27 0.736 63.91 0.584C63.542 0.432 63.15 0.36 62.71 0.36C62.278 0.36 61.878 0.432 61.518 0.584C61.15 0.736 60.838 0.944 60.574 1.208C60.318 1.464 60.11 1.768 59.966 2.104C59.822 2.448 59.75 2.808 59.75 3.2V3.216C59.75 3.6 59.822 3.96 59.966 4.304C60.11 4.64 60.31 4.944 60.566 5.192C60.83 5.448 61.142 5.656 61.502 5.808C61.87 5.96 62.262 6.032 62.694 6.032ZM73.4001 6.032V0.376H71.9601L70.5361 2.552L69.1041 0.376H67.6641V6.032H69.0001V2.56L69.8721 3.88V6.032H71.1921V3.832L72.0481 2.536V6.032H73.4001ZM75.3984 0.384V1.528H79.7504V0.384H75.3984ZM76.6224 4.88V3.776H78.1184V2.632H75.3984V6.024H79.7504V4.88H76.6224ZM85.454 1.56V6.024H86.814V1.56H88.518V0.376H83.75V1.56H85.454ZM95.4996 6.024L94.1236 4.008C94.9156 3.752 95.3156 3.168 95.3156 2.248C95.3156 1.72 95.1556 1.296 94.8356 0.968C94.4436 0.576 93.8756 0.376 93.1396 0.376H90.5156V6.024H91.8756V1.536H93.0356C93.6436 1.544 93.9396 1.808 93.9396 2.328C93.9156 2.84 93.6196 3.096 93.0596 3.096H91.9476L93.9396 6.024H95.4996ZM99.988 6.112C100.372 6.112 100.724 6.056 101.036 5.952C101.348 5.84 101.62 5.68 101.836 5.464C102.052 5.248 102.22 4.984 102.332 4.672C102.452 4.352 102.508 3.984 102.508 3.56V0.376H101.148V3.608C101.148 4.056 101.044 4.392 100.844 4.608C100.636 4.824 100.356 4.928 100.004 4.928C99.652 4.928 99.372 4.816 99.164 4.592C98.964 4.368 98.86 4.032 98.86 3.568V0.376H97.5V3.6C97.5 4.424 97.724 5.048 98.164 5.472C98.604 5.896 99.212 6.112 99.988 6.112ZM104.508 0.384V1.528H108.86V0.384H104.508ZM105.732 4.88V3.776H107.228V2.632H104.508V6.024H108.86V4.88H105.732ZM110.859 2.456L110.971 3C111.507 2.992 111.907 2.872 112.171 2.632C112.435 2.392 112.571 2.008 112.571 1.48V0.376H111.147V1.704H111.643C111.683 2.144 111.419 2.392 110.859 2.456Z" fill="white"/>
</svg>
