<svg width="115" height="13" viewBox="0 0 115 13" fill="none" xmlns="http://www.w3.org/2000/svg">
<path d="M5.10506 12.048C5.71306 12.048 6.28906 11.968 6.80106 11.808C7.31306 11.648 7.76106 11.424 8.12906 11.12C8.49706 10.816 8.78506 10.464 8.97706 10.032C9.18506 9.6 9.28106 9.12 9.28106 8.576V8.544C9.28106 8.064 9.20106 7.648 9.05706 7.296C8.89706 6.944 8.67306 6.64 8.35306 6.368C8.04906 6.112 7.66506 5.888 7.21706 5.696C6.76906 5.504 6.27306 5.344 5.69706 5.184C5.23306 5.056 4.84906 4.96 4.54506 4.864C4.24106 4.768 4.00106 4.672 3.84106 4.576C3.68106 4.48 3.56906 4.368 3.50506 4.24C3.42506 4.112 3.39306 3.968 3.39306 3.776V3.744C3.39306 3.472 3.50506 3.248 3.72906 3.088C3.93706 2.912 4.25706 2.832 4.68906 2.832C5.13706 2.832 5.58506 2.928 6.04906 3.12C6.49706 3.296 7.02506 3.6 7.60106 3.984L8.94506 2.048C8.35306 1.568 7.71306 1.216 7.00906 0.959999C6.32106 0.719999 5.55306 0.591999 4.72106 0.591999C4.12906 0.591999 3.58506 0.672 3.10506 0.832C2.60906 1.008 2.17706 1.232 1.82506 1.536C1.47306 1.84 1.20106 2.192 1.00906 2.608C0.833063 3.008 0.737063 3.472 0.737063 3.968V4C0.737063 4.544 0.817062 4.992 0.993063 5.376C1.16906 5.744 1.42506 6.048 1.74506 6.304C2.06506 6.56 2.46506 6.784 2.92906 6.944C3.39306 7.12 3.90506 7.28 4.46506 7.408C4.92906 7.536 5.29706 7.632 5.56906 7.744C5.85706 7.84 6.06506 7.936 6.22506 8.032C6.36906 8.128 6.46506 8.24 6.52906 8.352C6.57706 8.48 6.60906 8.608 6.60906 8.784V8.816C6.60906 9.136 6.48106 9.376 6.22506 9.552C5.96906 9.712 5.61706 9.808 5.15306 9.808C4.54506 9.808 3.98506 9.68 3.47306 9.456C2.96106 9.216 2.41706 8.864 1.82506 8.384L0.289062 10.224C0.977063 10.848 1.72906 11.296 2.56106 11.6C3.39306 11.888 4.24106 12.048 5.10506 12.048ZM19.1934 9.76C18.7454 9.76 18.3294 9.68 17.9454 9.504C17.5614 9.344 17.2254 9.104 16.9374 8.8C16.6494 8.496 16.4254 8.128 16.2654 7.728C16.1054 7.312 16.0254 6.864 16.0254 6.4V6.368C16.0254 5.888 16.1054 5.456 16.2654 5.04C16.4254 4.64 16.6494 4.288 16.9374 3.984C17.2094 3.68 17.5294 3.44 17.9134 3.28C18.2974 3.104 18.7134 3.024 19.1614 3.024C19.6094 3.024 20.0254 3.104 20.4094 3.28C20.7934 3.456 21.1294 3.696 21.4174 4C21.7054 4.304 21.9294 4.656 22.0894 5.072C22.2494 5.488 22.3294 5.92 22.3294 6.4V6.432C22.3294 6.896 22.2494 7.328 22.0894 7.744C21.9294 8.16 21.7214 8.512 21.4334 8.816C21.1614 9.12 20.8254 9.344 20.4414 9.52C20.0574 9.68 19.6414 9.76 19.1934 9.76ZM19.1614 12.064C20.0414 12.064 20.8254 11.92 21.5614 11.616C22.2974 11.312 22.9214 10.896 23.4334 10.384C23.9614 9.856 24.3614 9.248 24.6654 8.576C24.9534 7.888 25.0974 7.168 25.0974 6.4V6.368C25.0974 5.584 24.9534 4.864 24.6654 4.176C24.3774 3.504 23.9774 2.912 23.4494 2.4C22.9374 1.888 22.3134 1.472 21.5934 1.168C20.8574 0.863999 20.0734 0.719999 19.1934 0.719999C18.3294 0.719999 17.5294 0.863999 16.8094 1.168C16.0734 1.472 15.4494 1.888 14.9214 2.416C14.4094 2.928 13.9934 3.536 13.7054 4.208C13.4174 4.896 13.2734 5.616 13.2734 6.4V6.432C13.2734 7.2 13.4174 7.92 13.7054 8.608C13.9934 9.28 14.3934 9.888 14.9054 10.384C15.4334 10.896 16.0574 11.312 16.7774 11.616C17.5134 11.92 18.2974 12.064 19.1614 12.064ZM37.4216 12.064V9.728H31.8216V0.752H29.1016V12.064H37.4216ZM46.3901 12.224C47.1581 12.224 47.8621 12.112 48.4861 11.904C49.1101 11.68 49.6541 11.36 50.0861 10.928C50.5181 10.496 50.8541 9.968 51.0781 9.344C51.3181 8.704 51.4301 7.968 51.4301 7.12V0.752H48.7101V7.216C48.7101 8.112 48.5021 8.784 48.1021 9.216C47.6861 9.648 47.1261 9.856 46.4221 9.856C45.7181 9.856 45.1581 9.632 44.7421 9.184C44.3421 8.736 44.1341 8.064 44.1341 7.136V0.752H41.4141V7.2C41.4141 8.848 41.8621 10.096 42.7421 10.944C43.6221 11.792 44.8381 12.224 46.3901 12.224ZM58.8377 3.12V12.048H61.5577V3.12H64.9657V0.752H55.4297V3.12H58.8377ZM68.9609 0.752V12.048H71.6809V0.752H68.9609ZM81.5997 9.76C81.1517 9.76 80.7357 9.68 80.3517 9.504C79.9677 9.344 79.6317 9.104 79.3437 8.8C79.0557 8.496 78.8317 8.128 78.6717 7.728C78.5117 7.312 78.4317 6.864 78.4317 6.4V6.368C78.4317 5.888 78.5117 5.456 78.6717 5.04C78.8317 4.64 79.0557 4.288 79.3437 3.984C79.6157 3.68 79.9357 3.44 80.3197 3.28C80.7037 3.104 81.1197 3.024 81.5677 3.024C82.0157 3.024 82.4317 3.104 82.8157 3.28C83.1997 3.456 83.5357 3.696 83.8237 4C84.1117 4.304 84.3357 4.656 84.4957 5.072C84.6557 5.488 84.7357 5.92 84.7357 6.4V6.432C84.7357 6.896 84.6557 7.328 84.4957 7.744C84.3357 8.16 84.1277 8.512 83.8397 8.816C83.5677 9.12 83.2317 9.344 82.8477 9.52C82.4637 9.68 82.0477 9.76 81.5997 9.76ZM81.5677 12.064C82.4477 12.064 83.2317 11.92 83.9677 11.616C84.7037 11.312 85.3277 10.896 85.8397 10.384C86.3677 9.856 86.7677 9.248 87.0717 8.576C87.3597 7.888 87.5037 7.168 87.5037 6.4V6.368C87.5037 5.584 87.3597 4.864 87.0717 4.176C86.7837 3.504 86.3837 2.912 85.8557 2.4C85.3437 1.888 84.7197 1.472 83.9997 1.168C83.2637 0.863999 82.4797 0.719999 81.5997 0.719999C80.7357 0.719999 79.9357 0.863999 79.2157 1.168C78.4797 1.472 77.8557 1.888 77.3277 2.416C76.8157 2.928 76.3997 3.536 76.1117 4.208C75.8237 4.896 75.6797 5.616 75.6797 6.4V6.432C75.6797 7.2 75.8237 7.92 76.1117 8.608C76.3997 9.28 76.7997 9.888 77.3117 10.384C77.8397 10.896 78.4637 11.312 79.1837 11.616C79.9197 11.92 80.7037 12.064 81.5677 12.064ZM101.732 12.064V0.752H99.0278V7.376L93.9878 0.752H91.5078V12.064H94.1958V5.216L99.4118 12.064H101.732ZM110.543 12.048C111.151 12.048 111.727 11.968 112.239 11.808C112.751 11.648 113.199 11.424 113.567 11.12C113.935 10.816 114.223 10.464 114.415 10.032C114.623 9.6 114.719 9.12 114.719 8.576V8.544C114.719 8.064 114.639 7.648 114.495 7.296C114.335 6.944 114.111 6.64 113.791 6.368C113.487 6.112 113.103 5.888 112.655 5.696C112.207 5.504 111.711 5.344 111.135 5.184C110.671 5.056 110.287 4.96 109.983 4.864C109.679 4.768 109.439 4.672 109.279 4.576C109.119 4.48 109.007 4.368 108.943 4.24C108.863 4.112 108.831 3.968 108.831 3.776V3.744C108.831 3.472 108.943 3.248 109.167 3.088C109.375 2.912 109.695 2.832 110.127 2.832C110.575 2.832 111.023 2.928 111.487 3.12C111.935 3.296 112.463 3.6 113.039 3.984L114.383 2.048C113.791 1.568 113.151 1.216 112.447 0.959999C111.759 0.719999 110.991 0.591999 110.159 0.591999C109.567 0.591999 109.023 0.672 108.543 0.832C108.047 1.008 107.615 1.232 107.263 1.536C106.911 1.84 106.639 2.192 106.447 2.608C106.271 3.008 106.175 3.472 106.175 3.968V4C106.175 4.544 106.255 4.992 106.431 5.376C106.607 5.744 106.863 6.048 107.183 6.304C107.503 6.56 107.903 6.784 108.367 6.944C108.831 7.12 109.343 7.28 109.903 7.408C110.367 7.536 110.735 7.632 111.007 7.744C111.295 7.84 111.503 7.936 111.663 8.032C111.807 8.128 111.903 8.24 111.967 8.352C112.015 8.48 112.047 8.608 112.047 8.784V8.816C112.047 9.136 111.919 9.376 111.663 9.552C111.407 9.712 111.055 9.808 110.591 9.808C109.983 9.808 109.423 9.68 108.911 9.456C108.399 9.216 107.855 8.864 107.263 8.384L105.727 10.224C106.415 10.848 107.167 11.296 107.999 11.6C108.831 11.888 109.679 12.048 110.543 12.048Z" fill="white"/>
</svg>
