<svg width="29" height="29" viewBox="0 0 29 29" fill="none" xmlns="http://www.w3.org/2000/svg">
<path d="M0 2C0 1.60218 0.158035 1.22064 0.43934 0.93934C0.720644 0.658035 1.10218 0.5 1.5 0.5C1.89782 0.5 2.27936 0.658035 2.56066 0.93934C2.84196 1.22064 3 1.60218 3 2H27C27.3978 2 27.7794 2.15804 28.0607 2.43934C28.342 2.72064 28.5 3.10218 28.5 3.5C28.5 3.89782 28.342 4.27936 28.0607 4.56066C27.7794 4.84196 27.3978 5 27 5H3V28.25C3 28.4489 2.92098 28.6397 2.78033 28.7803C2.63968 28.921 2.44891 29 2.25 29H0.75C0.551088 29 0.360322 28.921 0.21967 28.7803C0.0790178 28.6397 0 28.4489 0 28.25V2ZM4.5 7.625C4.5 7.32663 4.61853 7.04048 4.8295 6.8295C5.04048 6.61853 5.32663 6.5 5.625 6.5H25.875C26.1734 6.5 26.4595 6.61853 26.6705 6.8295C26.8815 7.04048 27 7.32663 27 7.625V20.375C27 21.469 26.5654 22.5182 25.7918 23.2918C25.0182 24.0654 23.969 24.5 22.875 24.5H8.625C8.0833 24.5 7.5469 24.3933 7.04643 24.186C6.54596 23.9787 6.09123 23.6749 5.70818 23.2918C4.9346 22.5182 4.5 21.469 4.5 20.375V7.625ZM10.5 14.69V19.25C10.5 19.4489 10.579 19.6397 10.7197 19.7803C10.8603 19.921 11.0511 20 11.25 20H13.875C13.9745 20 14.0698 19.9605 14.1402 19.8902C14.2105 19.8198 14.25 19.7245 14.25 19.625V17.75C14.25 17.5511 14.329 17.3603 14.4697 17.2197C14.6103 17.079 14.8011 17 15 17H16.5C16.6989 17 16.8897 17.079 17.0303 17.2197C17.171 17.3603 17.25 17.5511 17.25 17.75V19.625C17.25 19.832 17.418 20 17.625 20H20.25C20.4489 20 20.6397 19.921 20.7803 19.7803C20.921 19.6397 21 19.4489 21 19.25V14.69C21 14.4733 20.9531 14.2592 20.8625 14.0625C20.7718 13.8657 20.6396 13.6908 20.475 13.55L16.239 9.92C16.1032 9.8038 15.9303 9.73995 15.7515 9.73995C15.5727 9.73995 15.3998 9.8038 15.264 9.92L11.0235 13.55C10.8593 13.6908 10.7275 13.8655 10.6372 14.062C10.5468 14.2585 10.5 14.4722 10.5 14.6885V14.69Z" fill="#ED1B2F"/>
</svg>
