<svg width="28" height="30" viewBox="0 0 28 30" fill="none" xmlns="http://www.w3.org/2000/svg">
<path d="M24.5 3H18.23C17.9229 2.12316 17.3508 1.36343 16.593 0.825926C15.8352 0.288419 14.9291 -0.000305176 14 -0.000305176C13.0709 -0.000305176 12.1648 0.288419 11.407 0.825926C10.6492 1.36343 10.0771 2.12316 9.77 3H3.5C2.70508 3.00237 1.9434 3.31921 1.3813 3.8813C0.819207 4.4434 0.502374 5.20508 0.5 6V27C0.502374 27.7949 0.819207 28.5566 1.3813 29.1187C1.9434 29.6808 2.70508 29.9976 3.5 30H24.5C25.2949 29.9976 26.0566 29.6808 26.6187 29.1187C27.1808 28.5566 27.4976 27.7949 27.5 27V6C27.4976 5.20508 27.1808 4.4434 26.6187 3.8813C26.0566 3.31921 25.2949 3.00237 24.5 3ZM14 3C14.2967 3 14.5867 3.08797 14.8334 3.25279C15.08 3.41762 15.2723 3.65188 15.3858 3.92597C15.4994 4.20006 15.5291 4.50166 15.4712 4.79263C15.4133 5.08361 15.2704 5.35088 15.0607 5.56066C14.8509 5.77044 14.5836 5.9133 14.2926 5.97118C14.0017 6.02905 13.7001 5.99935 13.426 5.88582C13.1519 5.77229 12.9176 5.58003 12.7528 5.33335C12.588 5.08668 12.5 4.79667 12.5 4.5C12.5012 4.10254 12.6596 3.7217 12.9407 3.44065C13.2217 3.1596 13.6025 3.00119 14 3ZM11 10.5L15.185 14.691L18.965 10.911L17 9H23V15L21.086 13.0335L15.188 18.936L11 14.745L7.121 18.621L5 16.5L11 10.5ZM24.5 25.5H3.5V22.5H24.5V25.5Z" fill="#FBAE17"/>
</svg>
