<svg width="31" height="22" viewBox="0 0 31 22" fill="none" xmlns="http://www.w3.org/2000/svg">
<path d="M22.25 11C22.7425 11 23.2301 10.903 23.6851 10.7145C24.14 10.5261 24.5534 10.2499 24.9016 9.90165C25.2499 9.55343 25.5261 9.14003 25.7145 8.68506C25.903 8.23009 26 7.74246 26 7.25C26 6.25544 25.6049 5.30161 24.9016 4.59835C24.1984 3.89509 23.2446 3.5 22.25 3.5C21.2554 3.5 20.3016 3.89509 19.5984 4.59835C18.8951 5.30161 18.5 6.25544 18.5 7.25C18.5 7.74246 18.597 8.23009 18.7855 8.68506C18.9739 9.14003 19.2501 9.55343 19.5984 9.90165C20.3016 10.6049 21.2554 11 22.25 11ZM11 9.5C12.1935 9.5 13.3381 9.0259 14.182 8.18198C15.0259 7.33807 15.5 6.19347 15.5 5C15.5 3.80653 15.0259 2.66193 14.182 1.81802C13.3381 0.974106 12.1935 0.5 11 0.5C9.80653 0.5 8.66193 0.974106 7.81802 1.81802C6.97411 2.66193 6.5 3.80653 6.5 5C6.5 6.19347 6.97411 7.33807 7.81802 8.18198C8.66193 9.0259 9.80653 9.5 11 9.5ZM22.25 14C19.505 14 14 15.38 14 18.125V21.5H30.5V18.125C30.5 15.38 24.995 14 22.25 14ZM11 12.5C7.505 12.5 0.5 14.255 0.5 17.75V21.5H11V18.125C11 16.85 11.495 14.615 14.555 12.92C13.25 12.65 11.99 12.5 11 12.5Z" fill="#12DF00"/>
</svg>
